<svg width="234px" height="38px" viewBox="0 0 234 38" fill="none" xmlns="http://www.w3.org/2000/svg">
<path d="M141 3.64742V21.3538C141 23.3681 142.681 25 144.751 25C146.821 25 148.5 23.3681 148.5 21.3538V3.64742C148.5 1.63305 146.821 0 144.751 0C142.681 0 141 1.63305 141 3.64742" fill="#EE5A00"/>
<path d="M76.9322 18.1574H66.5504L72.4995 11.8506L72.5441 11.8069L72.5842 11.7627C74.319 9.61374 78.2654 6.7088 76.5977 2.71145C75.6346 0.401131 72.9853 -0.137484 68.1828 0.0274848H57.036V7.25804H66.9473L59.8677 14.323C57.56 16.7837 55.4129 18.8473 56.1462 22.3719C56.5901 24.5075 57.8141 25 62.6551 25H76.9322V18.1574" fill="#EE5A00"/>
<path d="M191.932 18.1574H181.55L187.499 11.8506L187.544 11.8069L187.584 11.7627C189.319 9.61374 193.265 6.7088 191.598 2.71145C190.634 0.401131 187.986 -0.137484 183.18 0.0274848H172.036V7.25804H181.947L174.87 14.323C172.56 16.7837 170.413 18.8473 171.146 22.3719C171.592 24.5075 172.814 25 177.655 25H191.932V18.1574" fill="#EE5A00"/>
<path fill-rule="evenodd" clip-rule="evenodd" d="M191.837 10.5957C192.77 3.45455 199.293 -0.122459 203.604 0.0215858C212.775 -0.377093 217.78 4.80193 218 10.9849V21.3069C218 23.3461 216.333 25 214.273 25C212.221 25 210.555 23.3544 210.549 21.3197C207.471 25.9265 197.935 25.0275 194.981 21.8928C192.2 18.906 191.472 16.4613 191.837 10.5957ZM209.58 17.447L209.253 16.057L213.586 13.024C211.387 12.8311 211.624 12.3879 212.496 10.7597C212.657 10.4584 212.84 10.1166 213.033 9.72822C210.055 10.6338 210.06 10.4868 210.099 9.27087C210.108 9.00997 210.118 8.69986 210.101 8.34037C207.1 13.0136 207.483 10.8063 208.062 7.47026C208.143 7.00249 208.228 6.51253 208.308 6.01623C206.624 7.42388 206.615 7.40134 205.528 4.84351C205.46 4.6841 205.388 4.51484 205.312 4.33547H205.286C205.209 4.51421 205.137 4.68291 205.07 4.84183C203.981 7.40133 203.971 7.42418 202.287 6.01623C202.367 6.51047 202.452 6.99842 202.533 7.46443C203.114 10.8037 203.499 13.0163 200.496 8.34037C200.479 8.69985 200.489 9.00995 200.498 9.27085C200.538 10.4868 200.542 10.6338 197.564 9.72822C197.756 10.1154 197.939 10.4563 198.1 10.7569C198.972 12.3874 199.209 12.831 197.009 13.024L201.342 16.057L201.017 17.447L204.959 16.9962V20.6766H205.638V16.9962L209.58 17.447Z" fill="#EE5A00"/>
<path d="M118.158 2.29963C121.161 -0.241314 129.589 -0.936647 133.436 1.54453C137.797 3.84433 140.507 8.87675 139.921 12.9761C139.775 21.6724 133.692 25.4839 127.062 25.1594L123.192 24.7766V17.982L126.841 18.2587C134.133 18.0767 133.619 10.532 130.982 8.5893C129.589 7.07896 126.219 6.36136 123.653 7.65477C122.037 8.47246 121.124 10.415 121.241 12.9891L121.261 13.361V31.3336C121.261 33.3582 119.585 35 117.521 35C115.457 35 113.784 33.3582 113.784 31.3336V13.361C113.541 9.23816 114.569 4.49125 118.158 2.29963" fill="#EE5A00"/>
<path d="M27 3.64744V21.3515C27 23.3686 28.6775 25 30.7489 25C32.8202 25 34.5 23.3686 34.5 21.3515V3.64744C34.5 1.63291 32.8202 0 30.7489 0C28.6775 0 27 1.63291 27 3.64744" fill="#EE5A00"/>
<path d="M45.5488 18.1576L51.5002 11.851L51.5849 11.7628C53.3195 9.60967 57.2641 6.70881 55.5984 2.71173C54.635 0.401241 51.9862 -0.137378 47.181 0.0274407H36.0344V7.2579H45.9458L38.8707 14.3229C36.5608 16.7838 34.4112 18.8475 35.1469 22.3719C35.5907 24.508 36.8127 25 41.6535 25H55.9306V18.1576H45.5488Z" fill="#EE5A00"/>
<path d="M170.927 18.1576H160.051L166.285 11.851L166.33 11.8068L166.374 11.7628C168.191 9.60967 172.326 6.70881 170.579 2.71173C169.569 0.401241 166.794 -0.137378 161.763 0.0274407H150.084V7.2579H160.469L153.055 14.3229C150.635 16.7838 148.383 18.8475 149.154 22.3719C149.621 24.508 150.901 25 155.97 25H170.927V18.1576" fill="#EE5A00"/>
<path d="M4.40608 2.30072C7.40896 -0.241438 15.8383 -0.936776 19.6859 1.54457C24.045 3.84409 26.757 8.8767 26.1706 12.9763C26.0227 21.6725 19.9417 25.484 13.3095 25.1593L9.44195 24.7766V17.9817L13.0911 18.2587C20.3803 18.077 19.8691 10.5318 17.2319 8.58909C15.8383 7.07889 12.4671 6.36099 9.90291 7.65455C8.28672 8.47211 7.37591 10.415 7.4886 12.9888L7.5084 13.3611V31.3333C7.5084 33.3583 5.83694 35 3.77319 35C1.70716 35 0.0337135 33.3583 0.0337135 31.3333V13.3611C-0.208722 9.23557 0.816603 4.49057 4.40608 2.30072" fill="#EE5A00"/>
<path d="M93.8014 17.8154V24.6867C87.2025 25.4168 83.1853 25.02 80.2299 21.8874C77.448 18.9027 76.7227 16.4584 77.0875 10.5931C78.0199 3.45531 84.5416 -0.121026 88.8538 0.0214677C98.0254 -0.376071 103.03 4.80261 103.25 10.9854V21.3038C103.25 23.3404 101.583 24.994 99.525 24.994C97.4649 24.994 95.7958 23.3404 95.7958 21.3038V11.4189C95.721 10.5931 94.9909 7.3365 90.3864 7.0464C87.7565 6.97222 84.5416 8.34916 84.2494 11.6802C84.0295 18.053 89.342 19.2317 93.8014 17.8154" fill="#EE5A00"/>
</svg>
